<svg xmlns="http://www.w3.org/2000/svg" enable-background="new 0 0 47.5 47.5" viewBox="0 0 47.5 47.5" id="honeybee"><defs><clipPath id="a"><path d="M0 38h38V0H0v38Z"></path></clipPath><clipPath id="b"><path d="M8.719 17c0-6.133 4.603-13 10.281-13 5.679 0 10.281 6.867 10.281 13S24.679 25.923 19 25.923c-5.678 0-10.281-2.79-10.281-8.923"></path></clipPath><clipPath id="c"><path d="M0 38h38V0H0v38Z"></path></clipPath></defs><g clip-path="url(#a)" transform="matrix(1.25 0 0 -1.25 0 47.5)"><path fill="#292f33" d="M0 0c0-1.657-.447-3-1-3-.552 0-1 1.343-1 3s.448 3 1 3c.553 0 1-1.343 1-3" transform="translate(20 4)"></path><path fill="#292f33" d="M0 0c-.586.586-1.693.428-2.475-.354-.611-.611-1.948-2.53-2.222-3.619-.884.195-1.93.22-3.056.22-1.125 0-2.172-.025-3.055-.219-.275 1.089-1.611 3.007-2.223 3.618-.781.782-1.888.94-2.474.354-.586-.586-.428-1.693.353-2.475.511-.51 1.937-1.529 3.027-2.011-.82-.533-1.315-1.451-1.315-3.032 0-3.589 2.546-7.312 5.687-7.312 3.142 0 5.688 3.723 5.688 7.312 0 1.581-.496 2.499-1.316 3.032 1.091.482 2.517 1.5 3.027 2.011C.428-1.693.586-.586 0 0" transform="translate(26.753 35.753)"></path><path fill="#292f33" d="M0 0c0-6.134-4.603-13-10.281-13-5.678 0-10.281 6.866-10.281 13 0 6.133 4.603 8.923 10.281 8.923C-4.603 8.923 0 6.133 0 0" transform="translate(29.281 17)"></path></g><g clip-path="url(#b)" transform="matrix(1.25 0 0 -1.25 0 47.5)"><path fill="#ffcc4d" d="M30 18H8v4h22v-4zM30 10H8v4h22v-4zM30 2H8v4h22V2Z"></path><path fill="#292f33" d="M0 0c0-2.647-7.858-10-12-10s-6 5.354-6 8 1.858 1.584 6 1.584C-7.857-.416 0 2.645 0 0M0 0c0-2.647 7.857-10 12-10s6 5.354 6 8-1.857 1.584-6 1.584S0 2.645 0 0" transform="translate(19 23)"></path></g><g clip-path="url(#c)" transform="matrix(1.25 0 0 -1.25 0 47.5)"><path fill="#ccd6dd" d="M0 0c0-2.647-7.858-8.584-12-8.584s-6 2.443-6 5.089C-18-.849-16.142 1-12 1-7.857 1 0 2.645 0 0M0 0c0-2.647 7.857-8.584 12-8.584s6 2.443 6 5.089C18-.849 16.143 1 12 1S0 2.645 0 0" transform="translate(19 23.495)"></path><path fill="#99aab5" d="M0 0a1 1 0 0 0-.002 2c.048 0 4.948.07 13.596 3.914a1 1 0 0 0 .812-1.828C5.317.047.213 0 0 0" transform="translate(3 18)"></path><path fill="#99aab5" d="M0 0c-.213 0-5.316.047-14.406 4.086a1 1 0 0 0 .812 1.828C-4.946 2.07-.046 2 .003 2A1 1 0 0 0 0 0" transform="translate(35 18)"></path></g></svg>